<svg xmlns="http://www.w3.org/2000/svg"
  xmlns:xlink="http://www.w3.org/1999/xlink" width="383" height="182">
  <defs>
    <path id="a" d="M69.267.329c10.737 5.404 27.435 20.043 27.435 33.618v44.86H0v-44.86C0 20.85 15.278 6.761 25.892.933c-.538.336-.821.538-.821.538 1.829 3.1 6.744 16.856 22.163 16.856C62.656 18.327 69.84 3.558 69.84.671c-.191-.116-.382-.23-.573-.342z"/>
    <path id="c" d="M73.746 42.825c-6.915-8.462-11.755-20.32-11.755-20.32-22.002-6.773-49.551.21-49.734.874C9.759 32.416.523 43.59.523 43.59.663 21.4 12.223-.044 37.108 0 62.634-.092 73.07 19.556 73.746 42.825z"/>
    <path id="e" d="M37.392 34.2c-8.563 0-15.504-2.82-15.504-6.3s6.941-6.3 15.504-6.3c8.563 0 15.504 2.82 15.504 6.3s-6.941 6.3-15.504 6.3m15.375-12.976c-6.53-2.4-9.137-3.177-14.547-3.177s-9.087.032-16.186 3.6C5.624 29.892 0 .774 0 .774 0 47.195 23.369 59.4 37.973 59.4c14.835 0 38.635-10.658 38.635-59.4 0 0-7.019 27.41-23.84 21.224"/>
    <path id="g" d="M.77.838h39.596V25.25H.77z"/>
  </defs>
  <g fill="none" fill-rule="evenodd">
    <path fill="#ABB2BA" d="M204.14 142.644v14.759c0 3.105-2.503 5.623-5.596 5.623H35.513c-3.091 0-5.597-2.518-5.597-5.623v-14.759h174.225z"/>
    <path fill="#506572" d="M29.917 142.644V50.845c0-3.105 2.505-5.623 5.596-5.623h163.031c3.093 0 5.597 2.518 5.597 5.623v91.8H29.917z"/>
    <path fill="#EFEFEF" d="M35.53 137.06V53.528a2.867 2.867 0 0 1 2.86-2.874h157.278a2.867 2.867 0 0 1 2.86 2.874v83.532H35.53z"/>
    <path fill="#ABB2BA" d="M96.606 178.29h40.847v-15.263H96.606z"/>
    <path fill="#ABB2BA" d="M80.855 181.082h72.35v-4.944h-72.35z"/>
    <path fill="#959BA5" d="M118.35 154.162c0 .733-.593 1.327-1.321 1.327a1.323 1.323 0 0 1-1.32-1.327c0-.732.59-1.327 1.32-1.327.728 0 1.32.595 1.32 1.327"/>
    <path fill="#FFF" d="M81.84 82.523V137.4h69.651V72.27c0-2.47-2.027-4.47-4.526-4.47H97.59L81.84 82.523z"/>
    <path stroke="#8E9294" stroke-linecap="round" stroke-width="4.084" d="M92.647 111h48.036M92.647 90.6h19.083"/>
    <path stroke="#8E9294" stroke-linecap="round" stroke-width="4.295" d="M92.647 121.8h48.036m-48.036-20.4h48.036m-48.036 30h48.036"/>
    <path fill="#CCCAC8" d="M97.45 67.8v10.029c0 2.415-2.008 4.371-4.485 4.371H81.839l15.612-14.4z"/>
    <path fill="#E7E5E2" d="M212.108 104.451c1.838 2.965 7.002 55.064 22.5 55.064 15.502 0 22.5-53.067 22.5-55.83-23.733-13.714-45 .766-45 .766z"/>
    <g transform="translate(186.908 103.28)">
      <mask id="b" fill="#fff">
        <use xlink:href="#a"/>
      </mask>
      <use fill="#D8A25D" xlink:href="#a"/>
      <g fill="#6AB889" mask="url(#b)">
        <path d="M-59.095 131.684h226.299v-183h-226.3z"/>
      </g>
    </g>
    <path fill="#E7E5E2" d="M271.894 76.503c-4.496 18.707-19.08 32.413-36.379 32.413-17.3 0-31.884-13.708-36.379-32.418-.437.165-.92.256-1.428.256-1.986 0-3.6-1.4-3.6-3.134V60.974c0-1.734 1.614-3.136 3.6-3.136.133 0 .264.007.393.019 2.65-21.575 18.39-38.147 37.414-38.147 19.023 0 34.765 16.572 37.416 38.145a4.27 4.27 0 0 1 .377-.017c1.99 0 3.6 1.402 3.6 3.136V73.62c0 1.734-1.61 3.134-3.6 3.134-.502 0-.98-.09-1.414-.251z"/>
    <path fill="#635E59" d="M223.689 60.005c-2.623.144-3.357-2.635-2.567-4.446.15-.345 1.017-1.91 2.554-1.91 1.535 0 2.213.856 2.307 1.003 1.129 1.768.576 5.199-2.294 5.353m27.454 0c2.622.144 3.356-2.635 2.568-4.446-.15-.345-1.018-1.91-2.555-1.91-1.535 0-2.213.856-2.307 1.003-1.13 1.768-.575 5.199 2.294 5.353"/>
    <path stroke="#D1BFA3" stroke-linecap="round" stroke-width="1.2" d="M239.016 64.821c1.567-.241 3.095-.183 3.813.7 1.748 2.155 1.246 4.643-1.698 6.48-1.472.918-3.556 1.294-4.834.727"/>
    <path stroke="#593A32" stroke-linecap="round" stroke-width="1.216" d="M226.898 82.951s1.338 1.546 5.062 1.517l3.726-.029"/>
    <g transform="translate(197.651 12.447)">
      <mask id="d" fill="#fff">
        <use xlink:href="#c"/>
      </mask>
      <g fill="#3E3832" mask="url(#d)">
        <path d="M-24.408-52.67H95.303V90.029h-119.71z"/>
      </g>
    </g>
    <g transform="translate(197.528 56.023)">
      <mask id="f" fill="#fff">
        <use xlink:href="#e"/>
      </mask>
      <g fill="#3E3832" mask="url(#f)">
        <path d="M-23.712-43.2h125.696V98.501H-23.712z"/>
      </g>
    </g>
    <path fill="#FFD7A3" d="M148 64c7.18 0 13 5.82 13 13s-5.82 13-13 13-13-5.82-13-13 5.82-13 13-13z"/>
    <path stroke="#585B5C" stroke-linecap="round" stroke-width="1.296" d="M145 75.268S144.9 73 147.802 73c0 0 2.07.327 2.193 2.268.102 1.62-1.413 1.958-1.413 1.958s-2.12.148-1.308 2.47"/>
    <path fill="#585B5C" d="M146.5 83.044c0-.528.448-.957 1-.957.553 0 1 .429 1 .957s-.447.956-1 .956c-.552 0-1-.428-1-.956z"/>
    <path stroke="#9BD0B0" stroke-width="1.241" d="M25.333 110.596v46.548"/>
    <path fill="#9BD0B0" d="M25.653 114.126c7.062-5.221 10.446-12.933 8.555-19.3-.421-1.417-1.459-3.96-4.304-6.443-.324-.004-1.927-.053-3.161-1.329-1.635-1.69-1.13-3.99-1.09-4.158.143 0-9.413 3.765-9.636 15.615-.221 11.85 9.636 15.615 9.636 15.615"/>
    <path fill="#6AB889" d="M25.653 114.126c7.062-5.221 10.446-12.933 8.555-19.3-.421-1.417-1.459-3.96-4.304-6.443-.324-.004-1.927-.053-3.161-1.329-1.635-1.69-1.13-3.99-1.09-4.158.015 0-.113.458-.105 1.022.081 5.063.105 30.208.105 30.208"/>
    <path fill="#9BD0B0" d="M25.894 145.037c-1.464.91-6.805 3.983-12.901 2.448C5.42 145.578-.32 137.313.014 127.318c7.1-2.745 14.983-1.386 20.187 3.503 5.83 5.477 5.73 12.97 5.693 14.216"/>
    <path fill="#6AB889" d="M25.887 145.13L.007 127.413c7.1-2.746 14.984-1.386 20.187 3.503 5.83 5.476 5.73 12.97 5.693 14.216"/>
    <path fill="#9BD0B0" d="M25.37 131.432c.981-9.833 4.213-13.797 7.24-15.513 6.696-3.794 19.101-.386 19.101-.386l-2 1.058c.075.97.511 8.208-4.934 13.172-4.99 4.547-12.85 5.297-19.407 1.669"/>
    <path fill="#6AB889" d="M25.37 131.432c.981-9.833 4.213-13.797 7.24-15.513 6.696-3.794 19.101-.386 19.101-.386l-2 1.058c.075.97-24.34 14.84-24.34 14.84"/>
    <g transform="translate(5.333 156.421)">
      <mask id="h" fill="#fff">
        <use xlink:href="#g"/>
      </mask>
      <path fill="#50808B" d="M40.366.838H.77l4.327 22.257a2.667 2.667 0 0 0 2.621 2.155H33.41a2.671 2.671 0 0 0 2.623-2.155L40.366.838z" mask="url(#h)"/>
    </g>
    <circle cx="299.5" cy="67.5" r="3.5" fill="#EFEFEF"/>
    <path d="M382.797 28.764c0-8.318-6.782-15.06-15.148-15.06-1.101 0-2.174.12-3.209.342a6.268 6.268 0 0 0-6.082-4.707c-.449 0-.885.048-1.308.137A15.051 15.051 0 0 0 343.309.615a15.054 15.054 0 0 0-12.937 7.32 6.271 6.271 0 0 0-3.095-.813 6.277 6.277 0 0 0-5.545 3.323 10.84 10.84 0 0 0-1.814-.155c-5.93 0-10.74 4.78-10.74 10.675 0 1.174.194 2.302.546 3.359a6.217 6.217 0 0 0-1.647 2.795c-.104-.004-.207-.008-.311-.008-5.021 0-9.093 4.047-9.093 9.039 0 3.655 2.185 6.802 5.327 8.226a6.178 6.178 0 0 0 .576 3.402 14.922 14.922 0 0 0-1.798 7.12c0 7.958 6.212 14.47 14.077 15.017.225 4.235 3.75 7.6 8.065 7.6a8.092 8.092 0 0 0 3.267-.686 6.273 6.273 0 0 0 5.8 3.86 6.27 6.27 0 0 0 4.609-2.008 7.9 7.9 0 0 0 5.51 2.226 7.9 7.9 0 0 0 6.69-3.68c1.186.631 2.54.99 3.978.99 4.66 0 8.439-3.756 8.439-8.39a15.76 15.76 0 0 0 1.973.13c8.365 0 15.149-6.743 15.149-15.06 0-1.905-.36-3.726-1.01-5.404a6.229 6.229 0 0 0 3.24-5.46 6.23 6.23 0 0 0-3.37-5.527 14.943 14.943 0 0 0 3.602-9.742z" fill="#EFEFEF"/>
    <circle cx="292.5" cy="73.5" r="2.5" fill="#EFEFEF"/>
    <path stroke="#585B5C" stroke-linecap="round" stroke-width="3.24" d="M335.267 36.399s-.242-5.678 6.714-5.678c0 0 4.963.819 5.256 5.678.244 4.055-3.386 4.901-3.386 4.901s-5.083.37-3.135 6.183"/>
    <path fill="#585B5C" d="M338.86 55.865a2.396 2.396 0 1 1 4.793 0 2.394 2.394 0 0 1-2.394 2.394 2.396 2.396 0 0 1-2.398-2.394z"/>
  </g>
</svg>
